HIERARCHY
ROOT Hips
{
	OFFSET 0.000000 0.000000 0.000000
	CHANNELS 6 Xposition Yposition Zposition Xrotation Yrotation Zrotation
	JOINT LeftUpLeg_virtual
	{
		OFFSET 0.000000 0.000000 0.000000
		CHANNELS 3 Xrotation Yrotation Zrotation
		JOINT LeftUpLeg
		{
			OFFSET 15.427100 -6.655098 0.678600
			CHANNELS 3 Xrotation Yrotation Zrotation
			JOINT LeftLeg
			{
				OFFSET 4.081073 -39.591068 13.024000
				CHANNELS 3 Xrotation Yrotation Zrotation
				JOINT LeftFoot
				{
					OFFSET -4.081074 -37.707932 -15.979700
					CHANNELS 3 Xrotation Yrotation Zrotation
					JOINT LeftToeBase
					{
						OFFSET 5.346399 -15.068900 20.645000
						CHANNELS 3 Xrotation Yrotation Zrotation
						JOINT LeftToe_End
						{
							OFFSET 2.754700 0.931300 11.300900
							CHANNELS 3 Xrotation Yrotation Zrotation
							End Site
							{
								OFFSET 0 0 0
							}
						}
					}
				}
			}
		}
	}
	JOINT RightUpLeg_virtual
	{
		OFFSET 0.000000 0.000000 0.000000
		CHANNELS 3 Xrotation Yrotation Zrotation
		JOINT RightUpLeg
		{
			OFFSET -15.569500 -6.655098 0.678600
			CHANNELS 3 Xrotation Yrotation Zrotation
			JOINT RightLeg
			{
				OFFSET -4.081825 -39.591045 13.023800
				CHANNELS 3 Xrotation Yrotation Zrotation
				JOINT RightFoot
				{
					OFFSET 4.081824 -37.707954 -15.979600
					CHANNELS 3 Xrotation Yrotation Zrotation
					JOINT RightToeBase
					{
						OFFSET -5.346400 -15.068900 20.645000
						CHANNELS 3 Xrotation Yrotation Zrotation
						JOINT RightToe_End
						{
							OFFSET -2.754700 0.931300 11.300900
							CHANNELS 3 Xrotation Yrotation Zrotation
							End Site
							{
								OFFSET 0 0 0
							}
						}
					}
				}
			}
		}
	}
	JOINT Spine_virtual
	{
		OFFSET 0.000000 0.000000 0.000000
		CHANNELS 3 Xrotation Yrotation Zrotation
		JOINT Spine
		{
			OFFSET -0.279200 12.230698 -2.892100
			CHANNELS 3 Xrotation Yrotation Zrotation
			JOINT Spine1
			{
				OFFSET -0.232667 10.192268 -1.242267
				CHANNELS 3 Xrotation Yrotation Zrotation
				JOINT Spine1_split
				{
					OFFSET -0.232667 10.192268 -1.242267
					CHANNELS 3 Xrotation Yrotation Zrotation
					JOINT Spine2
					{
						OFFSET -0.232667 10.192268 -1.242267
						CHANNELS 3 Xrotation Yrotation Zrotation
						JOINT Neck_virtual
						{
							OFFSET 0.000000 0.000000 0.000000
							CHANNELS 3 Xrotation Yrotation Zrotation
							JOINT Neck
							{
								OFFSET -0.418800 17.814194 8.416900
								CHANNELS 3 Xrotation Yrotation Zrotation
								JOINT Head
								{
									OFFSET 0.000000 7.031097 3.806800
									CHANNELS 3 Xrotation Yrotation Zrotation
									JOINT HeadTop_End
									{
										OFFSET 0.000000 24.646606 12.978600
										CHANNELS 3 Xrotation Yrotation Zrotation
										End Site
										{
											OFFSET 0 0 0
										}
									}
								}
							}
						}
						JOINT LeftShoulder_virtual
						{
							OFFSET 0.000000 0.000000 0.000000
							CHANNELS 3 Xrotation Yrotation Zrotation
							JOINT LeftShoulder
							{
								OFFSET 8.476499 7.247704 -3.868750
								CHANNELS 3 Xrotation Yrotation Zrotation
								JOINT LeftShoulder_split
								{
									OFFSET 8.476499 7.247704 -3.868750
									CHANNELS 3 Xrotation Yrotation Zrotation
									JOINT LeftArm
									{
										OFFSET 9.308998 -2.777710 0.208600
										CHANNELS 3 Xrotation Yrotation Zrotation
										JOINT LeftForeArm
										{
											OFFSET 29.972298 0.000000 0.000000
											CHANNELS 3 Xrotation Yrotation Zrotation
											JOINT LeftHand
											{
												OFFSET 26.026505 0.000000 0.000000
												CHANNELS 3 Xrotation Yrotation Zrotation
												End Site
												{
													OFFSET 0 0 0
												}
											}
										}
									}
								}
							}
						}
						JOINT RightShoulder_virtual
						{
							OFFSET 0.000000 0.000000 0.000000
							CHANNELS 3 Xrotation Yrotation Zrotation
							JOINT RightShoulder
							{
								OFFSET -7.570500 7.247704 -3.868750
								CHANNELS 3 Xrotation Yrotation Zrotation
								JOINT RightShoulder_split
								{
									OFFSET -7.570500 7.247704 -3.868750
									CHANNELS 3 Xrotation Yrotation Zrotation
									JOINT RightArm
									{
										OFFSET -9.308998 -2.777710 0.208500
										CHANNELS 3 Xrotation Yrotation Zrotation
										JOINT RightForeArm
										{
											OFFSET -29.972300 0.000000 0.000000
											CHANNELS 3 Xrotation Yrotation Zrotation
											JOINT RightHand
											{
												OFFSET -26.026505 0.000000 0.000000
												CHANNELS 3 Xrotation Yrotation Zrotation
												End Site
												{
													OFFSET 0 0 0
												}
											}
										}
									}
								}
							}
						}
					}
				}
			}
		}
	}
}
MOTION
Frames: 10
Frame Time: 0.03333333
2.526101 70.823013 0.175114 0.000000 0.000000 0.000000 -4.886774 -51.404420 0.492813 -31.976309 7.858968 18.208948 54.136274 -4.556960 3.850380 -21.513989 -8.282555 -14.471349 -1.416170 -0.103237 -0.974890 0.000000 0.000000 0.000000 -6.144099 -47.155462 0.771460 -17.835063 -10.522391 -33.822373 55.498309 -5.523905 -7.000094 -32.784450 -12.168463 26.402443 3.755087 1.395555 -0.088647 0.000000 0.000000 0.000000 -4.461182 -49.875131 1.353484 10.077190 6.481891 -1.535733 2.157605 1.189402 -1.000599 0.122005 -0.617493 0.569908 0.000000 0.000000 0.000000 2.679524 1.118671 -0.818591 -1.182632 13.260019 3.446289 8.730295 20.759380 -4.229594 0.000000 0.000000 0.000000 3.435882 0.982577 -1.013759 1.534351 2.440761 -11.631145 -2.256505 0.384180 0.235231 -52.262996 2.095665 -50.628316 -179.056332 -74.755505 -179.102067 0.000000 0.000000 0.000000 3.631069 1.166741 -0.823453 3.298439 11.652543 -5.753981 -2.650460 1.772543 0.558141 -50.183930 26.991868 88.220062 -173.765299 71.621439 171.256133 0.000000 0.000000 0.000000 
2.127409 71.190636 0.309196 0.000000 0.000000 0.000000 -4.699532 -51.325552 0.700226 -31.949723 8.278806 18.240922 53.367512 -4.875367 3.938451 -21.538798 -8.749252 -14.749023 -1.755578 -0.096786 -0.620994 0.000000 0.000000 0.000000 -5.757957 -47.401390 1.092281 -17.972461 -11.447120 -34.274999 54.667786 -5.200001 -6.561785 -31.364010 -10.917118 24.637344 3.204180 1.490905 0.610929 0.000000 0.000000 0.000000 -3.613708 -49.355405 2.002273 9.883610 6.608517 -1.672457 2.270584 1.268145 -1.066803 0.320815 -0.364298 0.548362 0.000000 0.000000 0.000000 2.647525 1.211662 -0.938046 -1.170374 13.163866 3.254076 8.942813 20.710582 -4.114732 0.000000 0.000000 0.000000 3.616414 1.033432 -1.053226 1.476708 1.919361 -11.005012 -2.315161 0.370443 -0.000184 -52.918356 2.778676 -50.419258 -179.539295 -75.530499 -179.381504 0.000000 0.000000 0.000000 3.809488 1.255932 -0.934481 3.404756 11.930253 -5.568886 -2.998079 2.545741 0.815126 -50.737913 27.498642 88.203492 -174.373691 71.939705 172.049405 0.000000 0.000000 0.000000 
1.399681 72.077583 0.389645 0.000000 0.000000 0.000000 -3.959764 -50.757311 1.401823 -31.846225 8.612240 18.153142 51.982866 -5.185243 4.131826 -21.337685 -9.624564 -14.888204 -2.217103 -0.100204 -0.045921 0.000000 0.000000 0.000000 -4.951721 -47.351178 1.936201 -18.896080 -11.215511 -35.366347 54.169243 -4.115294 -5.969892 -26.890031 -8.421857 23.988365 -0.956988 1.339566 2.355576 0.000000 0.000000 0.000000 -2.447182 -48.140809 2.987911 9.644412 6.898961 -1.951926 2.333274 1.480880 -1.219126 0.434050 -0.227916 0.538059 0.000000 0.000000 0.000000 2.578860 1.413374 -1.121010 -0.912748 13.009700 2.783643 9.232733 20.172130 -3.697355 0.000000 0.000000 0.000000 3.624533 1.221211 -1.188601 1.423015 0.850113 -10.286174 -2.066214 0.095277 -0.437818 -55.012044 3.553888 -49.100225 -179.973367 -75.399408 -179.564567 0.000000 0.000000 0.000000 3.920722 1.442195 -1.134953 3.545853 12.479225 -5.447536 -2.927667 2.478275 0.995045 -52.445915 27.341708 88.070795 -174.707619 72.678322 172.658002 0.000000 0.000000 0.000000 
0.462906 73.273117 0.396656 0.000000 0.000000 0.000000 -2.868663 -49.685139 2.321854 -31.707224 8.755963 18.040126 50.185904 -5.389716 4.389692 -20.942892 -10.711185 -14.827386 -2.563536 -0.101979 0.495260 0.000000 0.000000 0.000000 -3.825679 -46.739125 3.016801 -20.018880 -10.028839 -36.527841 53.791858 -2.642236 -5.451259 -21.785920 -5.531579 23.405634 -6.101763 0.809715 4.561517 0.000000 0.000000 0.000000 -1.258906 -46.499091 3.999385 9.376065 7.238576 -2.267249 2.312848 1.723393 -1.370883 0.353068 -0.267629 0.631093 0.000000 0.000000 0.000000 2.520838 1.640561 -1.260452 -0.501049 12.872281 2.167779 9.529909 19.271925 -3.047530 0.000000 0.000000 0.000000 3.463859 1.461766 -1.313815 1.410136 -0.588756 -9.530732 -1.719880 -0.456981 -1.025775 -58.229200 4.305854 -46.722688 179.869043 -74.419706 -179.468466 0.000000 0.000000 0.000000 3.902063 1.643386 -1.315158 3.691971 13.199031 -5.493440 -2.713417 1.615133 1.048662 -55.342632 26.419305 87.905627 -174.736374 73.961359 172.953026 0.000000 0.000000 0.000000 
-0.515128 74.568626 0.320637 0.000000 0.000000 0.000000 -1.727039 -48.232819 3.160008 -31.681214 8.715909 18.043087 48.223775 -5.480818 4.719789 -20.461252 -11.829707 -14.646714 -2.664916 -0.089738 0.763755 0.000000 0.000000 0.000000 -2.779507 -45.630534 3.872617 -21.214194 -8.545391 -37.243133 53.731234 -1.668069 -4.972015 -17.871733 -3.398555 21.722116 -8.299458 0.199118 6.444365 0.000000 0.000000 0.000000 -0.148208 -44.701969 4.798492 9.100622 7.541303 -2.473540 2.215199 1.894598 -1.427510 0.239833 -0.293935 0.733062 0.000000 0.000000 0.000000 2.473548 1.791701 -1.258029 -0.091914 12.738124 1.616225 9.739221 18.254131 -2.263486 0.000000 0.000000 0.000000 3.191803 1.658788 -1.325685 1.461846 -2.199891 -8.850223 -1.588836 -0.936643 -1.542509 -62.225462 4.779382 -43.633120 179.818568 -72.945942 -179.335141 0.000000 0.000000 0.000000 3.734693 1.769774 -1.359559 3.828232 14.025139 -5.730720 -2.562466 0.586804 0.874245 -59.363175 24.788184 87.846458 -174.258726 75.825721 172.640476 0.000000 0.000000 0.000000 
-1.499830 75.720924 0.354031 0.000000 0.000000 0.000000 -0.868302 -46.554416 3.631758 -31.710751 8.584030 18.260618 46.427945 -5.654011 5.132637 -19.843745 -12.850951 -14.711789 -2.592778 -0.060677 0.691281 0.000000 0.000000 0.000000 -2.224811 -44.226366 4.247631 -22.454073 -7.423385 -37.443941 54.181545 -1.521923 -4.339369 -15.591992 -2.891445 19.118785 -6.419518 -0.111912 7.432242 0.000000 0.000000 0.000000 0.663492 -43.012051 5.208695 8.845950 7.724210 -2.497104 2.068745 1.904549 -1.343280 0.388756 -0.267174 0.789275 0.000000 0.000000 0.000000 2.445853 1.795625 -1.088246 0.189407 12.628181 1.329496 9.840459 17.358893 -1.463373 0.000000 0.000000 0.000000 2.875073 1.745306 -1.186166 1.563557 -3.878299 -8.366303 -1.588450 -1.253174 -1.902370 -66.246046 4.763378 -40.382380 179.782136 -71.560746 -179.282972 0.000000 0.000000 0.000000 3.477254 1.781254 -1.220357 3.950614 14.804616 -6.132852 -2.501944 -0.128364 0.377333 -64.078390 22.720399 88.113839 -173.043908 78.236402 171.468183 0.000000 0.000000 0.000000 
-2.588412 76.517746 0.466320 0.000000 0.000000 0.000000 -0.439682 -44.872260 3.687976 -31.750541 8.495459 18.806076 44.990200 -5.899910 5.524561 -19.176989 -13.663023 -15.203987 -2.441164 -0.024766 0.307961 0.000000 0.000000 0.000000 -2.189427 -42.697179 4.146298 -23.713631 -6.970815 -37.480223 54.836700 -1.852731 -3.594452 -14.774116 -3.974021 17.069182 -3.103933 -0.142306 7.097733 0.000000 0.000000 0.000000 1.123697 -41.594985 5.221175 8.625685 7.811803 -2.320383 1.926670 1.761503 -1.147775 0.623442 -0.118825 0.792520 0.000000 0.000000 0.000000 2.437691 1.661046 -0.792794 0.266736 12.559233 1.392033 9.844861 16.735666 -0.716475 0.000000 0.000000 0.000000 2.615467 1.692899 -0.937585 1.706411 -5.440007 -8.178767 -1.576514 -1.400937 -1.958472 -69.503739 4.233522 -37.607507 179.525908 -70.755501 -179.602720 0.000000 0.000000 0.000000 3.179382 1.669463 -0.962080 4.038630 15.398199 -6.630352 -2.575074 -0.469428 -0.214052 -68.751837 20.649533 88.662692 -170.538199 80.954476 168.940344 0.000000 0.000000 0.000000 
-3.782030 76.892883 0.417938 0.000000 0.000000 0.000000 -0.518679 -43.328613 3.433494 -31.733691 8.616552 19.698353 44.094919 -6.248397 5.876913 -18.616449 -14.204616 -16.285326 -2.438427 0.020003 -0.198366 0.000000 0.000000 0.000000 -2.683550 -41.527837 3.683582 -24.580012 -7.040730 -37.446143 54.828917 -2.383889 -3.144480 -14.941568 -6.159107 16.354475 -0.838460 -0.066338 5.415159 0.000000 0.000000 0.000000 1.222529 -40.680156 4.966888 8.476140 7.819303 -1.975346 1.824593 1.532499 -0.937745 0.828786 0.046686 0.812983 0.000000 0.000000 0.000000 2.447602 1.444146 -0.501914 0.146978 12.529355 1.777752 9.751915 16.500311 -0.059457 0.000000 0.000000 0.000000 2.436120 1.541454 -0.701836 1.842519 -6.797083 -8.424171 -1.713565 -1.367597 -1.786388 -71.392218 3.290743 -35.822095 179.022455 -70.880315 179.709285 0.000000 0.000000 0.000000 2.933476 1.487079 -0.703576 4.070609 15.641439 -7.135000 -2.631952 -0.468539 -0.710748 -72.477596 18.979171 89.411807 -165.651430 83.635448 164.023223 0.000000 0.000000 0.000000 
-5.063895 76.777916 0.279465 0.000000 0.000000 0.000000 -1.105024 -42.118952 3.031862 -31.508489 9.001457 20.832350 43.784419 -6.622294 6.205782 -18.536946 -14.435970 -17.693030 -2.554024 0.017573 -0.602371 0.000000 0.000000 0.000000 -3.507304 -40.943227 3.136710 -24.583977 -7.309894 -37.440068 53.750365 -2.940606 -3.130513 -15.616550 -8.818305 16.518871 0.943329 0.110105 3.078964 0.000000 0.000000 0.000000 0.881235 -40.350681 4.622488 8.424002 7.776079 -1.600074 1.785983 1.302784 -0.826334 0.956531 -0.016857 0.712570 0.000000 0.000000 0.000000 2.478681 1.234832 -0.352605 -0.080941 12.541493 2.319398 9.625687 16.585298 0.483101 0.000000 0.000000 0.000000 2.361816 1.358227 -0.606092 1.911999 -7.809884 -9.115019 -1.894601 -1.374519 -1.538144 -71.698804 2.314399 -35.049888 178.428051 -71.982066 178.900850 0.000000 0.000000 0.000000 2.808685 1.312009 -0.570674 4.048324 15.454840 -7.626652 -2.629497 -0.333406 -1.043547 -74.420894 18.063099 90.097258 -155.830411 85.986679 154.209716 0.000000 0.000000 0.000000 
-6.444824 76.143692 -0.029423 0.000000 0.000000 0.000000 -1.966289 -41.449406 2.740394 -31.032924 9.479897 22.024356 44.096531 -7.050525 6.602987 -19.101923 -14.412114 -19.420553 -2.800762 -0.047357 -0.684776 0.000000 0.000000 0.000000 -4.473491 -40.931661 2.721970 -24.015734 -7.346987 -37.740302 51.678103 -3.371778 -3.496420 -16.335977 -11.342594 17.332857 2.950282 0.319691 0.941516 0.000000 0.000000 0.000000 0.167785 -40.519250 4.319800 8.508268 7.760558 -1.328719 1.802588 1.162904 -0.880163 0.875443 -0.295178 0.607551 0.000000 0.000000 0.000000 2.528929 1.118216 -0.415743 -0.309598 12.594754 2.794173 9.545757 16.769701 0.949312 0.000000 0.000000 0.000000 2.404665 1.213649 -0.713998 1.902717 -8.281051 -10.162082 -1.927918 -1.307285 -1.333932 -70.956581 1.523459 -35.131443 177.753487 -73.698800 178.014660 0.000000 0.000000 0.000000 2.825245 1.200794 -0.627009 3.959716 14.967535 -8.112169 -2.614324 -0.370182 -0.966523 -74.317642 18.073193 90.421186 -132.326992 87.739121 130.728701 0.000000 0.000000 0.000000 
